<svg width="124" height="20" viewBox="0 0 124 20" fill="none" xmlns="http://www.w3.org/2000/svg">
<path d="M124 0.799901V0.109131H114.943V14.5143H124V13.8276H116.857V7.21477H123.396V6.524H116.857V0.799901H124Z" fill="#262C31"/>
<path d="M101 0.109131H99.0942V14.5143H108.152V13.8276H101V0.109131Z" fill="#262C31"/>
<path d="M55.3643 0.109131H53.4546V14.5184H55.3643V0.109131Z" fill="#262C31"/>
<path d="M41.7446 7.60257H41.8286C42.8389 7.57064 43.7967 7.16191 44.4997 6.46275C45.2027 5.76359 45.5957 4.82877 45.5957 3.85585C45.5957 2.88293 45.2027 1.94812 44.4997 1.24896C43.7967 0.549797 42.8389 0.141064 41.8286 0.109131H35.0334V14.5143H36.9347V7.60257H39.8433L44.6868 14.5143H46.5881L41.7446 7.60257ZM40.8507 6.92392H36.9347V0.80798H40.8465C41.6614 0.80033 42.4482 1.09394 43.0448 1.62827C43.6414 2.1626 44.0022 2.89689 44.0528 3.67972C44.1034 4.46255 43.8399 5.23423 43.3167 5.8356C42.7936 6.43697 42.0506 6.82219 41.241 6.9118C41.1319 6.90372 40.985 6.92392 40.8507 6.92392Z" fill="#262C31"/>
<path d="M24.2174 0.109131H17.4181V14.5143H19.3278V7.60257H24.2174C25.2278 7.57064 26.1856 7.16191 26.8886 6.46275C27.5915 5.76359 27.9845 4.82877 27.9845 3.85585C27.9845 2.88293 27.5915 1.94812 26.8886 1.24896C26.1856 0.549797 25.2278 0.141064 24.2174 0.109131ZM23.6298 6.8916C23.499 6.90873 23.3673 6.91951 23.2353 6.92392H19.3278V0.80798H23.2353C24.0502 0.80033 24.8371 1.09394 25.4337 1.62827C26.0302 2.1626 26.391 2.89689 26.4416 3.67972C26.4922 4.46255 26.2288 5.23423 25.7056 5.8356C25.1824 6.43697 24.4394 6.82219 23.6298 6.9118V6.8916Z" fill="#262C31"/>
<path d="M74.7046 11.7634L62.3608 0.177804V14.5184H63.0827V2.9732L75.4265 14.5507V0.109131H74.7046V11.7634Z" fill="#262C31"/>
<path d="M92.0976 0.109131H90.5699L84.207 7.31172L90.5657 14.5143H92.0976L85.7348 7.31172L92.0976 0.109131Z" fill="#262C31"/>
<path d="M84.1902 0.109131H82.3728V14.5184H84.1902V0.109131Z" fill="#262C31"/>
<path d="M5.59477 6.26945C1.50257 4.91618 1.70823 3.41749 1.70823 3.03777C1.70823 2.65805 2.06079 0.355484 5.03655 0.355484C7.29881 0.355484 9.3554 1.93496 9.3554 1.93496V1.09473C8.03413 0.404804 6.56042 0.0294281 5.05754 0C2.70715 0 0.0209856 1.35326 0.0209856 3.99516C0.0209856 8.26501 8.73003 7.55404 8.73003 11.2179C8.73003 14.6314 4.70918 14.4496 4.2391 14.4496C3.76902 14.4496 1.09545 14.2557 0.0419713 12.9025L0 13.9245C1.43962 14.8253 3.92012 14.9465 4.19713 14.9465C4.47414 14.9465 10.3837 15.3504 10.3837 10.9069C10.3837 7.50556 6.98402 6.72592 5.59477 6.26945Z" fill="#262C31"/>
<path d="M35.4658 18.7318C35.4671 18.9078 35.4314 19.0824 35.3608 19.2448C35.293 19.3986 35.1913 19.5364 35.0628 19.6488C34.9294 19.7557 34.7774 19.8391 34.6137 19.8952C34.4353 19.9532 34.248 19.9818 34.0597 19.98H33.4763V17.4876H34.0597C34.2504 17.4866 34.4401 17.5138 34.6221 17.5684C34.787 17.6218 34.9395 17.7055 35.0712 17.8148C35.1948 17.9294 35.2933 18.0668 35.3608 18.2187C35.4316 18.3811 35.4673 18.5557 35.4658 18.7318ZM34.9789 18.7318C34.9793 18.6169 34.9565 18.503 34.9117 18.3965C34.8715 18.298 34.8066 18.2105 34.7229 18.142C34.6386 18.0709 34.54 18.0172 34.4333 17.9844C34.3118 17.9442 34.1839 17.925 34.0555 17.9279H33.959V19.5437H34.0555C34.1839 19.5466 34.3118 19.5274 34.4333 19.4872C34.54 19.4544 34.6386 19.4008 34.7229 19.3296C34.802 19.2586 34.8661 19.1736 34.9117 19.0792C34.9583 18.9689 34.9811 18.8507 34.9789 18.7318Z" fill="#262C31"/>
<path d="M39.071 19.9638L38.391 19.0226V19.9638H37.9167V17.4875H38.4834C38.6032 17.4855 38.7228 17.4964 38.8401 17.5199C38.9431 17.5422 39.0411 17.5819 39.1297 17.637C39.2139 17.6956 39.2816 17.7733 39.327 17.8632C39.3811 17.9728 39.4071 18.0934 39.4025 18.2147C39.4089 18.3747 39.357 18.5319 39.2556 18.659C39.1557 18.7751 39.0208 18.8584 38.8695 18.8974L39.646 19.9638H39.071ZM38.9241 18.2066C38.9253 18.1549 38.9138 18.1037 38.8905 18.0571C38.8674 18.022 38.8357 17.9929 38.7982 17.9723C38.7558 17.9522 38.7105 17.9386 38.6638 17.9319C38.6136 17.9279 38.563 17.9279 38.5127 17.9319H38.3952V18.5015H38.5295C38.6232 18.5016 38.7155 18.4794 38.7982 18.4368C38.8408 18.4152 38.8757 18.3816 38.8981 18.3405C38.9206 18.2994 38.9296 18.2527 38.9241 18.2066Z" fill="#262C31"/>
<path d="M42.009 19.9638V17.4875H42.4959V19.9638H42.009Z" fill="#262C31"/>
<path d="M47.5493 19.9638H47.2303L45.5892 18.2995V19.9638H45.1066V17.4875H45.4256L47.0624 19.1438V17.4875H47.5493V19.9638Z" fill="#262C31"/>
<path d="M51.5702 19.9638L50.6343 19.0872V19.9638H50.1516V17.4875H50.6343V18.2955L51.4989 17.4875H52.1746L50.8735 18.6994L52.2502 19.98L51.5702 19.9638Z" fill="#262C31"/>
<path d="M54.5627 19.9638V17.4875H55.0496V19.9638H54.5627Z" fill="#262C31"/>
<path d="M60.1112 19.9638H59.7922L58.1553 18.2995V19.9638H57.6685V17.4875H57.9874L59.6243 19.1438V17.4875H60.1112V19.9638Z" fill="#262C31"/>
<path d="M65.2734 18.7217C65.2749 18.8922 65.2406 19.0612 65.1727 19.2186C65.1101 19.3691 65.0174 19.5064 64.8999 19.6226C64.7755 19.7437 64.627 19.8394 64.4633 19.904C64.2996 19.9685 64.124 20.0006 63.9471 19.9983C63.7643 19.998 63.5833 19.9637 63.4141 19.8973C63.2594 19.8287 63.1175 19.7358 62.9944 19.6226C62.8705 19.5072 62.7708 19.3701 62.7006 19.2186C62.6282 19.0629 62.5908 18.8943 62.5908 18.7238C62.5908 18.5532 62.6282 18.3846 62.7006 18.2289C62.7697 18.0769 62.8696 17.9395 62.9944 17.825C63.1175 17.7117 63.2594 17.6189 63.4141 17.5503C63.5828 17.482 63.7642 17.4476 63.9471 17.4493C64.1813 17.448 64.4115 17.5065 64.6145 17.6189C64.8378 17.7479 65.0285 17.9232 65.1727 18.132L64.7907 18.4067C64.6836 18.2438 64.5402 18.1059 64.371 18.0027C64.2437 17.93 64.0993 17.8897 63.9513 17.8855C63.8319 17.8844 63.7134 17.9063 63.603 17.9502C63.4976 17.9926 63.4009 18.0528 63.3176 18.1279C63.2389 18.2039 63.1749 18.2928 63.1287 18.3905C63.0818 18.4908 63.0575 18.5996 63.0573 18.7096C63.0571 18.8197 63.0814 18.9285 63.1287 19.0288C63.1738 19.1282 63.2378 19.2186 63.3176 19.2954C63.4009 19.3705 63.4976 19.4307 63.603 19.4731C63.7134 19.5169 63.8319 19.5389 63.9513 19.5377C64.1378 19.5392 64.3195 19.4808 64.4677 19.3718C64.6159 19.2628 64.7222 19.1094 64.7698 18.9358H63.796V18.4996H65.286C65.2889 18.5547 65.2889 18.61 65.286 18.6652L65.2734 18.7217Z" fill="#262C31"/>
<path d="M73.5463 19.9638H73.2525L72.5055 18.2955L71.771 19.9638H71.473L70.6335 17.4875H71.1372L71.5905 18.7883L71.6828 19.1034L71.8003 18.8004L72.3963 17.4875H72.6859L73.2735 18.7923L73.391 19.0953L73.475 18.8004L73.9241 17.4875H74.4319L73.5463 19.9638Z" fill="#262C31"/>
<path d="M78.2932 19.9638L78.0036 19.2932H77.1642L76.8746 19.9638H76.3541L77.437 17.4875H77.7392L78.8052 19.9638H78.2932ZM77.5839 18.348L77.3488 18.8852H77.8189L77.5839 18.348Z" fill="#262C31"/>
<path d="M81.844 17.9238V19.9638H81.3613V17.9238H80.7527V17.4875H82.4316V17.9238H81.844Z" fill="#262C31"/>
<path d="M84.782 19.9638V17.4875H86.2384V17.9279H85.2646V18.4045H86.2048V18.8408H85.2646V19.5275H86.2384V19.9638H84.782Z" fill="#262C31"/>
<path d="M89.957 19.9639L89.2729 19.0226V19.9639H88.7986V17.4876H89.3652C89.485 17.4854 89.6047 17.4962 89.7219 17.5199C89.8251 17.5415 89.9233 17.5812 90.0116 17.6371C90.0958 17.6967 90.1647 17.774 90.213 17.8633C90.2638 17.9738 90.2882 18.0939 90.2844 18.2147C90.2907 18.3748 90.2388 18.532 90.1375 18.6591C90.0383 18.7759 89.9031 18.8594 89.7513 18.8974L90.5278 19.9639H89.957ZM89.8185 18.2066C89.8197 18.155 89.8082 18.1037 89.7849 18.0572C89.7618 18.0221 89.7301 17.9929 89.6926 17.9723C89.6502 17.9523 89.6049 17.9387 89.5583 17.9319C89.508 17.9278 89.4574 17.9278 89.4072 17.9319H89.2896V18.5015H89.3988C89.4924 18.5007 89.5844 18.4786 89.6674 18.4369C89.7144 18.4185 89.7542 18.3863 89.7813 18.3451C89.8083 18.3038 89.8214 18.2554 89.8185 18.2066Z" fill="#262C31"/>
</svg>
