<svg width="600" height="508" viewBox="0 0 600 508" fill="none" xmlns="http://www.w3.org/2000/svg">
<path d="M575.657 243.222C579.055 353.641 532.929 431.298 436.793 476.679C340.656 521.817 253.988 517.692 176.302 464.302C98.6159 410.913 43.5074 331.072 11.2191 225.021C-21.0691 118.97 16.3172 51.0199 123.621 21.6558C230.925 -7.7084 332.159 -5.76698 427.568 27.4801C522.976 60.7271 572.015 132.803 575.657 243.222Z" fill="#F8F9FA"/>
<path d="M11.2169 320.867C11.2169 320.867 22.627 342.466 34.0372 352.416C45.4473 362.365 66.0826 348.775 66.0826 348.775C66.0826 348.775 41.563 302.909 31.1239 305.821C20.6849 308.733 11.2169 320.867 11.2169 320.867Z" fill="#F39772"/>
<path d="M151.296 462.598C139.643 466.966 191.596 320.873 216.359 300.731C235.537 285.199 279.478 315.049 267.097 345.869C249.861 388.58 191.353 476.673 183.342 487.836C173.631 501.669 158.579 459.928 151.296 462.598Z" fill="#F39772"/>
<path d="M586.822 424.977C599.203 425.705 506.708 301.211 477.09 289.32C454.27 280.098 421.011 321.353 441.889 347.32C470.779 383.237 552.834 449.973 563.516 458.467C577.111 469.145 579.053 424.492 586.822 424.977Z" fill="#F39772"/>
<path d="M347.448 274.273C371.851 274.273 391.632 265.69 391.632 255.102C391.632 244.513 371.851 235.93 347.448 235.93C323.046 235.93 303.265 244.513 303.265 255.102C303.265 265.69 323.046 274.273 347.448 274.273Z" fill="#C4C4C4"/>
<path d="M346.239 273.553C368.362 273.553 386.296 265.73 386.296 256.08C386.296 246.43 368.362 238.607 346.239 238.607C324.116 238.607 306.182 246.43 306.182 256.08C306.182 265.73 324.116 273.553 346.239 273.553Z" fill="#9B9B9B"/>
<path d="M406.14 174.556C409.917 162.818 408.633 151.904 403.272 150.181C397.911 148.457 390.503 156.576 386.726 168.314C382.949 180.053 384.233 190.967 389.594 192.69C394.955 194.414 402.363 186.295 406.14 174.556Z" fill="#F39570"/>
<path d="M393.824 186.201C393.824 186.201 393.338 181.348 394.31 180.134C396.009 179.892 397.466 178.921 398.679 176.979C399.893 175.038 400.621 172.369 399.65 170.427C399.408 169.699 398.679 169.214 397.951 168.971C399.408 164.603 404.263 161.205 404.263 161.205C404.263 161.205 397.223 164.845 396.009 169.456L395.766 170.427H396.737C397.466 170.427 397.951 170.913 397.951 171.155C398.437 172.126 397.951 174.31 396.98 176.009C396.009 177.708 394.552 178.678 393.338 178.436H392.61L392.367 179.164C391.882 182.804 393.824 186.201 393.824 186.201Z" fill="#ED8267"/>
<path d="M299.007 197.712C304.228 195.602 304.712 184.625 300.089 173.193C295.466 161.761 287.486 154.205 282.265 156.314C277.044 158.424 276.56 169.402 281.183 180.833C285.806 192.265 293.786 199.822 299.007 197.712Z" fill="#F39570"/>
<path d="M293.559 262.156C293.559 262.156 320.749 253.905 316.622 213.863C312.738 173.821 373.915 173.821 374.401 225.269C374.644 256.089 396.493 260.7 396.493 260.7L353.523 332.291L291.374 280.357L293.559 262.156Z" fill="#F39772"/>
<path d="M346.723 245.898C363.349 245.898 376.827 230.47 376.827 211.438C376.827 192.406 363.349 176.978 346.723 176.978C330.098 176.978 316.62 192.406 316.62 211.438C316.62 230.47 330.098 245.898 346.723 245.898Z" fill="#EA7762"/>
<path d="M294.288 191.283C294.288 191.283 294.53 186.429 293.316 185.216C291.617 185.216 289.918 184.245 288.704 182.304C287.247 180.362 286.276 177.693 287.247 175.994C287.49 175.266 288.218 174.78 288.704 174.538C287.004 170.412 281.906 167.257 281.906 167.257C281.906 167.257 289.189 170.412 290.646 174.781L290.889 175.751H289.918C289.189 175.751 288.704 176.237 288.704 176.479C288.218 177.45 288.704 179.634 290.16 181.333C291.374 182.789 292.831 183.76 294.045 183.517H294.773L295.016 184.245C296.23 187.885 294.288 191.283 294.288 191.283Z" fill="#ED8267"/>
<path d="M296.715 103.433C296.715 103.433 290.16 130.371 290.403 137.651C290.889 144.931 297.929 176.722 299.385 183.032C300.842 189.342 300.842 197.593 305.698 205.601C310.553 213.852 331.917 240.061 351.338 238.848C370.76 237.635 388.239 207.057 389.696 193.467C391.395 180.12 393.337 157.551 393.58 149.299C393.823 141.048 394.065 93.9686 374.401 91.0565C354.98 88.1443 343.327 85.9602 296.715 103.433Z" fill="#F9AD87"/>
<path d="M338.469 149.06C338.226 150.273 337.255 151.002 336.041 151.002C335.798 151.002 334.099 150.759 331.914 150.516C329.729 150.273 326.816 150.273 323.903 150.031C320.989 149.788 318.076 149.545 315.891 149.303C313.706 149.06 312.25 148.817 312.25 148.332C312.25 148.089 313.706 147.847 315.891 147.604C318.076 147.361 320.989 147.119 323.903 146.876C326.816 146.633 329.729 146.391 332.157 146.391C334.584 146.391 336.284 146.391 336.526 146.391C337.983 146.633 338.711 147.847 338.469 149.06Z" fill="#1B1B1B"/>
<path d="M354.984 147.367C354.741 146.153 355.47 144.94 356.684 144.697C356.926 144.697 358.626 144.212 361.053 143.969C363.481 143.727 366.394 143.484 369.308 143.241C372.221 142.999 375.134 142.999 377.319 142.999C379.504 142.999 380.961 142.999 380.961 143.241C380.961 143.484 379.747 143.969 377.562 144.697C375.377 145.183 372.706 145.911 369.793 146.396C366.88 146.881 363.967 147.367 361.782 147.852C359.597 148.338 358.14 148.823 357.655 148.823C356.684 149.308 355.47 148.58 354.984 147.367Z" fill="#1B1B1B"/>
<path d="M345.515 189.343C345.515 191.527 347.214 193.226 349.642 193.226C351.827 193.226 353.769 191.527 353.769 189.343H345.515Z" fill="#F39570"/>
<path d="M332.647 186.676C332.647 192.258 328.762 196.626 323.907 196.626C319.052 196.626 315.167 192.015 315.167 186.676C315.167 181.095 319.052 181.58 323.907 181.58C328.762 181.58 332.647 181.095 332.647 186.676Z" fill="#F39570"/>
<path d="M382.896 185.46C382.896 191.041 379.011 195.41 374.156 195.41C369.3 195.41 365.416 190.799 365.416 185.46C365.416 179.878 369.3 180.363 374.156 180.363C378.768 180.363 382.896 179.878 382.896 185.46Z" fill="#F39570"/>
<path d="M349.641 186.188C350.579 186.188 351.34 184.449 351.34 182.305C351.34 180.16 350.579 178.422 349.641 178.422C348.702 178.422 347.941 180.16 347.941 182.305C347.941 184.449 348.702 186.188 349.641 186.188Z" fill="#FABE9F"/>
<path d="M355.708 210.713C355.708 210.713 351.824 213.383 344.784 210.713C350.853 214.596 350.853 214.353 355.708 210.713Z" fill="#F39570"/>
<path d="M461.309 278.168C441.159 267.248 412.27 258.511 386.536 250.988C378.282 262.637 353.763 272.829 344.537 278.168C316.619 261.181 309.093 252.687 309.093 252.687C244.516 266.52 220.968 285.449 214.17 291.273C194.021 308.746 192.321 320.88 181.154 351.943C194.992 365.775 214.899 386.403 241.118 399.751C246.459 402.42 256.655 371.6 259.325 371.6C260.054 390.286 261.753 449.742 262.239 502.646C316.376 514.538 374.641 505.801 436.547 476.68C438.003 475.952 439.703 475.224 441.159 474.496C445.772 436.88 450.384 400.721 446.015 376.696C444.801 368.688 468.107 382.52 472.476 389.558C477.332 392.713 512.533 348.788 525.643 333.499C497.239 296.855 471.991 283.993 461.309 278.168Z" fill="#B1B2B4"/>
<path d="M363.957 201.723C359.102 203.907 342.351 204.15 336.039 202.451C342.108 209.246 358.859 208.275 363.957 201.723Z" fill="white"/>
<path d="M335.078 161.917C333.621 164.344 330.465 167.013 325.853 166.285C321.726 165.557 318.57 161.917 317.841 159.247C323.425 156.578 334.35 159.247 335.078 161.917Z" fill="#EEE6DF"/>
<path d="M326.824 164.122C328.701 164.122 330.223 162.601 330.223 160.724C330.223 158.848 328.701 157.327 326.824 157.327C324.947 157.327 323.426 158.848 323.426 160.724C323.426 162.601 324.947 164.122 326.824 164.122Z" fill="#8A613A"/>
<path d="M335.074 161.925C334.345 157.314 323.421 154.644 317.594 159.255V159.498C324.392 156.828 333.617 159.741 335.074 161.925Z" fill="#1B1B1B"/>
<path d="M326.828 162.653C328.034 162.653 329.013 161.675 329.013 160.469C329.013 159.262 328.034 158.284 326.828 158.284C325.621 158.284 324.643 159.262 324.643 160.469C324.643 161.675 325.621 162.653 326.828 162.653Z" fill="#1B1B1B"/>
<path opacity="0.5" d="M328.763 161.686C329.3 161.686 329.734 161.252 329.734 160.716C329.734 160.18 329.3 159.745 328.763 159.745C328.227 159.745 327.792 160.18 327.792 160.716C327.792 161.252 328.227 161.686 328.763 161.686Z" fill="white"/>
<path d="M360.076 159.723C361.533 162.15 364.689 164.819 369.301 164.091C373.428 163.363 376.584 159.723 377.313 157.053C371.972 154.384 360.804 157.053 360.076 159.723Z" fill="#EEE6DF"/>
<path d="M368.329 161.915C370.206 161.915 371.727 160.394 371.727 158.517C371.727 156.641 370.206 155.12 368.329 155.12C366.451 155.12 364.93 156.641 364.93 158.517C364.93 160.394 366.451 161.915 368.329 161.915Z" fill="#8A613A"/>
<path d="M360.326 159.734C360.083 159.734 360.083 159.734 360.326 159.734C361.054 155.123 371.978 152.454 377.805 157.065V157.307C370.765 154.638 361.539 157.55 360.326 159.734Z" fill="#1B1B1B"/>
<path d="M368.328 160.462C369.535 160.462 370.513 159.484 370.513 158.278C370.513 157.072 369.535 156.094 368.328 156.094C367.121 156.094 366.143 157.072 366.143 158.278C366.143 159.484 367.121 160.462 368.328 160.462Z" fill="#1B1B1B"/>
<path opacity="0.5" d="M369.784 159.496C370.321 159.496 370.756 159.061 370.756 158.525C370.756 157.989 370.321 157.554 369.784 157.554C369.248 157.554 368.813 157.989 368.813 158.525C368.813 159.061 369.248 159.496 369.784 159.496Z" fill="white"/>
<path d="M391.64 256.578C394.31 272.594 374.16 310.695 374.16 310.695L350.854 286.912L324.878 319.917C324.878 319.917 290.405 263.13 303.029 254.393C309.584 249.782 324.15 286.184 324.15 286.184L351.34 276.72L366.877 290.553C367.12 290.067 386.541 274.293 391.64 256.578Z" fill="#9B9B9B"/>
<path d="M313.954 254.635C323.179 264.342 350.127 274.777 350.127 274.777C350.127 274.777 371.247 262.886 375.86 252.693C377.074 250.024 380.473 242.258 380.473 242.258C380.473 242.258 391.64 247.112 391.64 256.333C391.64 271.38 376.831 300.744 376.831 300.744L352.554 280.601L328.52 305.84C328.52 305.84 303.515 270.166 303.029 257.304C303.029 256.819 303.029 256.576 303.029 256.091C304.243 249.053 308.128 246.141 308.128 246.141C308.128 246.141 310.555 250.752 313.954 254.635Z" fill="#C4C4C4"/>
<path d="M261.028 417.216C265.398 392.462 264.913 368.437 257.387 362.855C257.872 370.379 258.843 396.345 261.028 417.216Z" fill="#9B9B9B"/>
<path d="M362.539 313.969C364.382 313.612 365.524 311.51 365.091 309.273C364.657 307.036 362.811 305.512 360.969 305.869C359.126 306.227 357.984 308.329 358.417 310.566C358.851 312.803 360.697 314.327 362.539 313.969Z" fill="#E0E0E0"/>
<path d="M366.497 341.377C368.339 341.019 369.482 338.916 369.048 336.68C368.614 334.443 366.768 332.919 364.925 333.276C363.082 333.634 361.94 335.737 362.374 337.973C362.808 340.21 364.654 341.734 366.497 341.377Z" fill="#E0E0E0"/>
<path d="M361.048 357.534C361.048 357.534 358.135 298.078 350.123 284.973C348.909 283.032 348.424 286.915 346.967 287.157C354.25 308.27 360.077 345.643 361.048 357.534Z" fill="#9B9B9B"/>
<path opacity="0.5" d="M384.838 347.57L436.305 352.18L435.334 405.57L414.456 428.382L388.237 408.967L384.838 347.57Z" fill="#C4C4C4"/>
<path fill-rule="evenodd" clip-rule="evenodd" d="M405.654 344.451C405.357 344.154 405.06 344.154 405.06 343.857C404.764 343.264 404.17 342.374 403.873 341.781C403.576 340.891 402.983 340.594 402.093 340.891C402.093 341.781 402.092 342.967 401.796 344.154C401.499 344.154 401.202 344.154 400.905 344.154C401.202 341.781 401.202 339.704 401.499 337.331C402.389 337.331 403.576 337.33 404.764 337.627C405.357 337.627 405.951 338.517 405.951 339.407C405.951 340.297 405.357 340.891 404.17 341.187C404.467 342.077 405.06 342.967 405.654 344.451C405.654 344.154 405.654 344.154 405.654 344.451ZM402.093 340.594C402.686 340.594 403.576 340.594 404.17 340.594C404.764 340.594 405.357 339.704 405.357 339.111C405.357 338.517 405.06 337.924 404.467 337.627C403.873 337.627 403.28 337.627 402.686 337.331C402.092 338.517 402.093 339.407 402.093 340.594Z" fill="white"/>
<path fill-rule="evenodd" clip-rule="evenodd" d="M421.981 342.075C421.981 343.262 421.684 344.449 421.684 345.339C421.388 345.339 421.091 345.339 421.091 345.339C421.388 342.965 421.388 340.888 421.684 338.515C421.981 338.515 421.981 338.515 422.278 338.515C422.278 339.702 422.278 340.592 421.981 342.075C423.168 340.888 424.059 339.998 424.949 338.812H425.246C424.356 339.998 423.465 340.888 422.278 342.075C423.168 343.262 423.762 344.449 424.652 345.635C424.652 345.635 424.652 345.635 424.652 345.932C424.356 345.635 424.059 345.635 424.059 345.339C423.465 344.449 422.872 343.855 422.278 342.965C422.575 342.372 422.278 342.372 421.981 342.075Z" fill="white"/>
<path fill-rule="evenodd" clip-rule="evenodd" d="M394.377 339.998C394.377 341.185 394.08 342.075 394.08 343.262C393.784 343.262 393.487 343.262 393.487 343.262C393.784 340.889 393.784 338.812 394.08 336.438C394.971 336.438 396.158 336.438 397.048 336.735C397.939 336.735 398.532 337.922 398.235 338.515C398.235 339.405 397.345 339.998 396.455 339.998C395.861 340.295 395.268 339.998 394.377 339.998ZM394.674 337.032C394.674 337.922 394.674 338.812 394.377 339.702L394.674 339.998C395.268 339.998 395.861 339.998 396.455 339.998C397.048 339.998 397.345 339.405 397.642 338.515C397.642 337.922 397.345 337.328 396.751 337.032C395.861 337.032 395.268 337.032 394.674 337.032Z" fill="white"/>
<path fill-rule="evenodd" clip-rule="evenodd" d="M413.081 339.41C413.081 341.19 412.784 342.97 412.784 344.75C412.784 344.75 412.784 344.75 412.487 344.75C412.784 342.673 412.784 340.3 413.081 338.223C414.565 340.003 416.049 342.08 417.829 343.86C417.829 341.783 418.126 340.003 418.126 338.52C418.126 338.52 418.126 338.52 418.423 338.52C418.126 340.596 418.126 342.97 417.829 345.343C416.346 343.266 414.862 341.486 413.378 339.41C413.378 339.41 413.378 339.41 413.081 339.41Z" fill="white"/>
<path fill-rule="evenodd" clip-rule="evenodd" d="M436.222 339.7C436.222 340.59 436.222 341.48 435.925 342.666C436.815 342.666 437.706 342.666 438.596 342.963C438.596 342.963 438.596 342.963 438.596 343.26C437.706 343.26 436.815 343.26 435.925 342.963C435.925 344.15 435.628 345.04 435.628 346.227C436.518 346.227 437.409 346.227 438.596 346.523C438.596 346.523 438.596 346.523 438.596 346.82C437.409 346.82 436.222 346.523 435.034 346.523C435.331 344.446 435.331 342.073 435.628 339.996C436.815 339.996 438.002 340.293 439.19 340.293C439.19 340.293 439.19 340.293 439.19 340.59C438.299 339.996 437.409 339.7 436.222 339.7Z" fill="white"/>
<path fill-rule="evenodd" clip-rule="evenodd" d="M386.072 342.372C386.962 342.669 387.853 342.965 388.743 342.965C389.337 342.965 389.93 342.372 389.93 341.779C389.93 341.185 389.633 340.592 389.337 340.295C388.743 339.998 388.15 339.702 387.556 339.405C386.962 339.108 386.666 338.515 386.666 337.922C386.666 337.032 387.259 336.735 388.15 336.438C387.853 336.735 387.853 336.735 387.556 337.032C386.962 337.625 386.962 338.218 387.556 338.812C387.853 339.108 388.446 339.405 389.04 339.702C389.337 339.998 389.93 339.998 390.227 340.295C390.821 340.889 390.821 341.482 390.821 342.075C390.524 342.669 390.227 342.965 389.634 343.262C388.15 343.262 387.259 343.262 386.072 342.372C386.072 342.669 386.072 342.669 386.072 342.372Z" fill="white"/>
<path fill-rule="evenodd" clip-rule="evenodd" d="M409.511 344.446C409.214 344.446 408.916 344.446 408.916 344.446C409.214 342.073 409.214 339.996 409.511 337.623C409.809 337.623 410.106 337.623 410.106 337.623C409.809 339.996 409.809 342.073 409.511 344.446Z" fill="white"/>
<path fill-rule="evenodd" clip-rule="evenodd" d="M428.811 339.099C429.107 339.099 429.107 339.099 429.404 339.099C429.107 341.176 429.107 343.253 428.811 345.626C429.998 345.626 430.888 345.626 431.779 345.923C431.779 345.923 431.779 345.923 431.779 346.22C430.591 346.22 429.404 345.923 428.217 345.923C428.514 343.549 428.514 341.473 428.811 339.099Z" fill="white"/>
<path opacity="0.5" d="M312.983 505.08C277.539 466.009 269.77 442.712 261.031 389.808C261.516 389.808 262.487 476.687 312.983 505.08Z" fill="#9B9B9B"/>
<path d="M226.8 382.991C220.488 377.41 214.661 371.828 209.806 367.46C204.465 362.606 200.823 359.209 200.338 358.481C197.667 356.054 193.783 354.113 192.812 353.87C191.841 353.627 192.812 355.569 195.725 358.238C196.453 358.966 200.823 362.606 206.407 367.46C211.991 372.313 219.274 378.38 226.071 384.205L226.8 382.991Z" fill="#9B9B9B"/>
<path d="M445.781 340.046C446.51 346.355 448.937 388.339 448.694 393.435C448.694 394.649 445.296 434.205 444.81 444.155C444.325 454.105 443.839 460.415 443.596 460.415C443.354 460.415 443.354 453.62 443.596 443.67C443.839 433.72 444.082 420.373 444.325 406.782C444.567 393.192 445.053 379.36 445.296 368.682C445.781 357.761 446.024 349.996 446.024 348.539C446.267 342.473 444.81 338.832 445.781 340.046Z" fill="#9B9B9B"/>
<path d="M465.197 337.38C464.711 336.166 462.284 337.38 460.584 341.02C460.099 341.991 457.914 347.087 455.001 354.125C452.33 360.192 448.931 368.2 445.533 376.209V383.004C445.775 382.276 446.261 381.547 446.504 380.819C450.388 372.326 455.001 364.56 457.914 358.008C461.07 351.455 463.74 347.33 463.983 346.602C465.683 343.204 465.44 338.351 465.197 337.38Z" fill="#9B9B9B"/>
<path d="M384.838 347.57C385.567 352.666 386.052 357.762 386.538 362.858C387.023 367.955 387.509 373.051 387.752 378.147C388.48 388.34 388.966 398.775 389.451 408.967L388.965 407.997C393.335 411.152 397.462 414.549 401.832 417.947C404.017 419.645 406.202 421.344 408.144 423.043C410.329 424.742 412.271 426.44 414.456 428.139C412.271 426.683 409.844 425.227 407.659 423.771C405.474 422.315 403.046 420.859 400.861 419.16C396.491 416.005 391.879 413.093 387.509 409.938L387.023 409.695V409.21C386.295 399.018 385.809 388.582 385.324 378.39C385.081 373.294 385.081 368.197 384.838 362.858C384.838 357.762 384.838 352.666 384.838 347.57Z" fill="#9B9B9B"/>
<path opacity="0.4" d="M434.126 364.075C434.126 364.075 433.398 364.075 431.941 364.075C430.485 364.075 428.785 364.075 426.357 364.075C421.745 364.075 415.676 363.59 409.606 363.105C403.537 362.619 397.468 361.891 392.855 361.163C390.67 360.92 388.728 360.435 387.514 360.192C386.301 359.95 385.33 359.707 385.33 359.707C385.33 359.707 386.058 359.707 387.514 359.707C388.971 359.707 390.671 359.707 393.098 359.707C397.711 359.707 403.78 360.192 409.849 360.678C415.918 361.163 421.988 361.891 426.6 362.619C428.785 362.862 430.727 363.347 431.941 363.59C433.398 363.833 434.126 364.075 434.126 364.075Z" fill="#9B9B9B"/>
<path d="M298.663 173.816C298.663 173.816 284.097 134.259 281.184 107.079C298.421 96.6436 299.392 94.2168 299.392 94.2168L283.369 95.6729L301.577 90.8193L296.964 83.2962L303.762 88.3925L299.392 70.4342C299.392 70.4342 336.535 51.0199 371.737 67.7648C356.2 65.0953 346.975 67.0368 346.975 67.0368C346.975 67.0368 398.441 66.3087 404.996 107.807C393.343 108.049 390.673 108.778 390.673 108.778L398.199 110.719C398.199 110.719 399.17 146.393 394.557 159.012C392.372 135.958 388.245 115.33 383.147 110.234C377.078 111.932 358.87 120.669 347.217 123.824C338.72 123.096 324.154 117.999 324.154 117.999L344.547 121.64L305.218 111.69C305.218 111.447 299.877 123.338 298.663 173.816Z" fill="#2B2B2B"/>
<path d="M576.388 239.095C574.446 223.563 572.989 214.584 572.504 208.76C572.504 208.275 572.747 207.547 572.747 206.819L578.33 164.107C578.573 161.68 576.874 159.496 574.446 159.253H573.961C571.533 159.011 568.134 165.563 566.192 174.057L561.822 198.81C561.822 198.81 561.822 198.81 561.579 198.81C561.579 198.325 561.337 197.839 561.337 197.354L555.267 146.391C553.325 140.81 548.712 142.023 548.712 142.023C545.799 143.965 543.857 148.575 544.343 151.488L544.828 179.881L530.019 147.605C528.563 144.935 525.407 143.722 522.494 145.178L522.008 145.421C519.337 146.877 520.066 155.856 523.464 166.534L535.846 196.141C529.048 194.685 521.28 192.743 520.794 192.743C520.066 192.743 509.141 200.266 507.199 201.722C505.257 203.178 502.101 214.342 503.072 215.07C504.043 215.555 511.569 215.555 513.511 207.547C518.124 206.333 522.251 203.906 522.251 203.906C522.251 203.906 522.494 204.149 532.69 208.032C537.06 209.731 536.817 219.195 534.875 221.622C533.904 222.835 526.863 227.204 523.222 227.446C520.551 227.689 515.21 225.747 512.783 225.505C511.812 219.923 506.471 215.555 504.286 215.555C502.101 215.555 502.829 216.04 502.829 216.526C503.8 222.107 503.8 231.814 505.014 233.271C518.609 242.25 533.418 248.802 542.886 255.112C544.343 256.082 547.499 261.907 547.984 267.974C550.412 296.124 540.216 369.413 541.429 389.07C543.129 411.397 556.724 441.732 560.365 454.837C563.036 463.816 571.29 463.573 579.059 452.41C585.856 442.703 595.081 438.577 599.451 416.008C603.578 394.409 583.186 314.811 579.544 276.225C579.059 268.702 577.359 245.89 576.388 239.095Z" fill="#F9AD87"/>
<path d="M182.855 500.954H41.8065C36.4655 500.954 32.0957 496.585 32.0957 491.246V279.145C32.0957 273.806 36.4655 269.438 41.8065 269.438H182.855C188.196 269.438 192.566 273.806 192.566 279.145V491.246C192.566 496.585 188.196 500.954 182.855 500.954Z" fill="#08668D"/>
<path d="M179.946 498.764H38.8973C33.5564 498.764 29.1865 494.396 29.1865 489.057V276.955C29.1865 271.617 33.5564 267.248 38.8973 267.248H179.946C185.287 267.248 189.657 271.617 189.657 276.955V489.057C189.657 494.396 185.287 498.764 179.946 498.764Z" fill="#0B8BC0"/>
<path d="M180.672 275.734H40.8372V480.555H180.672V275.734Z" fill="#F8F9FA"/>
<path d="M136.007 257.783H117.557C117.557 253.901 114.401 250.988 110.517 250.988C106.632 250.988 103.719 254.143 103.476 257.783H85.0258C83.3265 257.783 81.8699 259.24 81.8699 260.938V277.926H139.163V260.938C139.406 259.24 137.949 257.783 136.007 257.783ZM110.759 260.696C109.303 260.696 107.846 259.482 107.846 257.783C107.846 256.085 109.06 254.871 110.759 254.871C112.216 254.871 113.673 256.085 113.673 257.783C113.673 259.482 112.216 260.696 110.759 260.696Z" fill="#C1C8CE"/>
<path d="M139.408 270.879H82.3572V277.917H139.408V270.879Z" fill="#97A3AE"/>
<path d="M82.4131 304.225C82.4131 303.672 82.2178 303.249 81.8271 302.956C81.4365 302.656 80.7334 302.344 79.7178 302.018C78.7021 301.686 77.8981 301.361 77.3057 301.042C75.6911 300.169 74.8838 298.994 74.8838 297.516C74.8838 296.748 75.0986 296.064 75.5283 295.465C75.9645 294.86 76.5863 294.388 77.3936 294.049C78.2074 293.711 79.1188 293.542 80.1279 293.542C81.1436 293.542 82.0485 293.727 82.8428 294.098C83.637 294.463 84.2523 294.98 84.6885 295.651C85.1312 296.321 85.3525 297.083 85.3525 297.936H82.4229C82.4229 297.285 82.2178 296.78 81.8076 296.422C81.3975 296.058 80.8213 295.875 80.0791 295.875C79.363 295.875 78.8063 296.028 78.4092 296.334C78.012 296.634 77.8135 297.031 77.8135 297.526C77.8135 297.988 78.0446 298.375 78.5068 298.688C78.9756 299 79.6624 299.293 80.5674 299.567C82.234 300.068 83.4482 300.69 84.21 301.432C84.9717 302.174 85.3525 303.099 85.3525 304.206C85.3525 305.436 84.887 306.403 83.9561 307.106C83.0251 307.803 81.7718 308.151 80.1963 308.151C79.1025 308.151 78.1064 307.952 77.208 307.555C76.3096 307.152 75.6227 306.601 75.1475 305.905C74.6787 305.208 74.4443 304.401 74.4443 303.483H77.3838C77.3838 305.052 78.3213 305.836 80.1963 305.836C80.8929 305.836 81.4365 305.696 81.8271 305.417C82.2178 305.13 82.4131 304.733 82.4131 304.225Z" fill="#97A3AE"/>
<path d="M97.2064 293.737V303.102C97.2064 304.658 96.7182 305.889 95.7416 306.793C94.7715 307.698 93.4434 308.151 91.7572 308.151C90.0971 308.151 88.7787 307.711 87.8021 306.833C86.8256 305.954 86.3275 304.746 86.308 303.209V293.737H89.2377V303.122C89.2377 304.053 89.459 304.733 89.9018 305.163C90.351 305.586 90.9695 305.797 91.7572 305.797C93.4044 305.797 94.2409 304.931 94.267 303.2V293.737H97.2064Z" fill="#97A3AE"/>
<path d="M103.972 302.75H101.638V307.956H98.7088V293.737H103.992C105.672 293.737 106.967 294.111 107.879 294.86C108.79 295.609 109.246 296.667 109.246 298.034C109.246 299.004 109.034 299.814 108.611 300.465C108.194 301.11 107.56 301.624 106.707 302.008L109.783 307.819V307.956H106.638L103.972 302.75ZM101.638 300.377H104.002C104.737 300.377 105.307 300.192 105.711 299.821C106.114 299.443 106.316 298.926 106.316 298.268C106.316 297.597 106.124 297.07 105.74 296.686C105.362 296.302 104.78 296.11 103.992 296.11H101.638V300.377Z" fill="#97A3AE"/>
<path d="M115.641 304.43L118.863 293.737H122.125L117.174 307.956H114.117L109.186 293.737H112.438L115.641 304.43Z" fill="#97A3AE"/>
<path d="M131.128 301.793H125.503V305.602H132.104V307.956H122.573V293.737H132.085V296.11H125.503V299.499H131.128V301.793Z" fill="#97A3AE"/>
<path d="M137.825 300.143L140.784 293.737H143.987L139.319 302.799V307.956H136.341V302.799L131.673 293.737H134.886L137.825 300.143Z" fill="#97A3AE"/>
<path d="M160.282 321.867H86.723V327.449H160.282V321.867Z" fill="#D5DADF"/>
<path d="M160.278 332.528H86.7188V338.11H160.278V332.528Z" fill="#D5DADF"/>
<path d="M160.041 343.207H61.234V348.788H160.041V343.207Z" fill="#D5DADF"/>
<path d="M71.9178 336.191L62.6925 327.94C61.7215 327.212 61.7215 325.756 62.4498 325.028C63.1781 324.058 64.6347 324.058 65.363 324.786L71.675 330.367L81.3858 320.417C82.1141 319.689 83.5708 319.689 84.2991 320.417C85.0274 321.145 85.2702 322.602 84.2991 323.33L71.9178 336.191Z" fill="#57B894"/>
<path d="M160.274 368.681H86.7146V374.263H160.274V368.681Z" fill="#D5DADF"/>
<path d="M160.274 379.374H86.7146V384.956H160.274V379.374Z" fill="#D5DADF"/>
<path d="M160.036 390.051H61.229V395.633H160.036V390.051Z" fill="#D5DADF"/>
<path d="M71.91 383.005L62.6847 374.754C61.7137 374.026 61.7137 372.57 62.442 371.842C63.1703 370.871 64.6269 370.871 65.3552 371.599L71.6672 377.181L81.3779 367.231C82.1062 366.503 83.5628 366.503 84.2912 367.231C85.0195 367.959 85.2622 369.415 84.2912 370.143L71.91 383.005Z" fill="#57B894"/>
<path d="M160.273 415.544H86.7142V421.126H160.273V415.544Z" fill="#D5DADF"/>
<path d="M160.277 426.205H86.7185V431.787H160.277V426.205Z" fill="#D5DADF"/>
<path d="M160.036 436.883H61.2294V442.464H160.036V436.883Z" fill="#D5DADF"/>
<path d="M71.9144 429.852L62.6891 421.601C61.7181 420.873 61.7181 419.417 62.4464 418.689C63.1747 417.718 64.6313 417.718 65.3596 418.446L71.6716 424.028L81.3824 414.078C82.1107 413.35 83.5674 413.35 84.2957 414.078C85.024 414.806 85.2667 416.262 84.2957 416.99L71.9144 429.852Z" fill="#57B894"/>
<path d="M17.0499 294.172C13.6512 295.87 15.5933 300.481 19.4776 303.879C23.6047 307.276 44.24 312.372 54.4363 310.916C64.6326 309.46 53.4653 301.209 49.0954 299.025C44.7256 296.841 24.333 290.289 17.0499 294.172Z" fill="#F9AD87"/>
<path d="M11.9491 305.338C8.30758 307.28 10.2497 311.891 14.6196 315.531C18.7467 318.928 40.5959 324.51 51.2777 323.054C61.9595 321.598 50.3066 312.861 45.694 310.677C41.0814 308.493 19.4749 301.213 11.9491 305.338Z" fill="#F9AD87"/>
<path d="M32.3498 280.104C32.3498 280.104 55.4129 284.958 60.0255 295.15C57.8406 300.732 44.731 298.305 35.9913 296.607C30.6504 295.636 27.009 293.209 24.824 290.297C20.697 285.201 22.8818 278.891 32.3498 280.104Z" fill="#F9AD87"/>
<path d="M20.6918 314.31C20.6918 314.31 43.7548 319.164 48.3674 329.356C46.1825 334.938 33.073 332.511 24.3333 330.812C18.9924 329.842 15.3509 327.415 13.166 324.503C9.28166 319.406 11.4666 313.097 20.6918 314.31Z" fill="#F9AD87"/>
</svg>
