<svg width="18" height="19" viewBox="0 0 18 19" fill="none" xmlns="http://www.w3.org/2000/svg">
<path d="M17.3334 13.8126V16.3126C17.3344 16.5446 17.2868 16.7744 17.1939 16.987C17.1009 17.1997 16.9645 17.3906 16.7935 17.5475C16.6225 17.7043 16.4206 17.8238 16.2007 17.8982C15.9809 17.9725 15.7479 18.0001 15.5168 17.9792C12.9525 17.7006 10.4893 16.8244 8.3251 15.4209C6.31163 14.1415 4.60455 12.4344 3.32511 10.4209C1.91676 8.2469 1.04031 5.77173 0.766774 3.1959C0.745949 2.96545 0.773336 2.7332 0.847191 2.51392C0.921045 2.29464 1.03975 2.09314 1.19575 1.92225C1.35174 1.75136 1.54161 1.61482 1.75327 1.52133C1.96492 1.42784 2.19372 1.37945 2.42511 1.37923H4.92511C5.32953 1.37525 5.7216 1.51846 6.02824 1.78218C6.33488 2.04589 6.53517 2.4121 6.59177 2.81256C6.69729 3.61262 6.89298 4.39817 7.17511 5.15423C7.28723 5.4525 7.31149 5.77666 7.24503 6.0883C7.17856 6.39994 7.02416 6.68599 6.80011 6.91256L5.74177 7.9709C6.92807 10.0572 8.65548 11.7846 10.7418 12.9709L11.8001 11.9126C12.0267 11.6885 12.3127 11.5341 12.6244 11.4676C12.936 11.4012 13.2602 11.4254 13.5584 11.5376C14.3145 11.8197 15.1 12.0154 15.9001 12.1209C16.3049 12.178 16.6746 12.3819 16.9389 12.6938C17.2032 13.0057 17.3436 13.4039 17.3334 13.8126Z" stroke="#262C31" stroke-width="1.2" stroke-linecap="round" stroke-linejoin="round"/>
</svg>
