<svg width="20" height="21" viewBox="0 0 20 21" fill="none" xmlns="http://www.w3.org/2000/svg">
<path d="M16.3826 0.71265H3.64532C1.64538 0.709999 0.00293436 2.32951 2.91952e-06 4.32995V17.0669C-0.00250975 19.0675 1.61718 20.71 3.61741 20.7126H16.3548C18.3552 20.7152 19.9969 19.0958 20 17.0949V4.35787C20.0028 2.35728 18.3834 0.715443 16.3826 0.71265Z" fill="#00B900"/>
<path d="M17.2496 9.83262C17.2496 6.57434 13.9831 3.92355 9.96774 3.92355C5.95292 3.92355 2.68604 6.57434 2.68604 9.83262C2.68604 12.7537 5.2766 15.1999 8.7759 15.6625C9.01307 15.7136 9.33581 15.8189 9.41747 16.0216C9.4909 16.2057 9.46549 16.4941 9.44092 16.68C9.44092 16.68 9.35549 17.1938 9.33707 17.3033C9.30538 17.4874 9.19077 18.0233 9.96774 17.6958C10.745 17.3683 14.1614 15.2266 15.6891 13.4682H15.6888C16.7441 12.311 17.2496 11.1367 17.2496 9.83262Z" fill="white"/>
<path d="M8.48721 8.25818H7.97644C7.89813 8.25818 7.83447 8.32169 7.83447 8.39972V11.5726C7.83447 11.6507 7.89813 11.7141 7.97644 11.7141H8.48721C8.56552 11.7141 8.62904 11.6507 8.62904 11.5726V8.39972C8.62904 8.32169 8.56552 8.25818 8.48721 8.25818Z" fill="#00B900"/>
<path d="M11.9969 8.25818H11.4862C11.4079 8.25818 11.3443 8.32169 11.3443 8.39972V10.2847L9.89033 8.32113C9.88698 8.31611 9.88321 8.31136 9.8793 8.30676L9.87832 8.30592C9.87553 8.30271 9.87274 8.29992 9.86981 8.29713C9.86897 8.29629 9.86813 8.29559 9.86715 8.29475C9.86478 8.29252 9.86227 8.29043 9.85962 8.28847C9.8585 8.28735 9.85724 8.28652 9.85599 8.28554C9.85347 8.28386 9.8511 8.28205 9.84859 8.28051C9.84719 8.27954 9.8458 8.2787 9.84426 8.278C9.84175 8.27647 9.83923 8.27493 9.83672 8.27367C9.83519 8.27298 9.83379 8.27214 9.83226 8.27158C9.8296 8.27032 9.82695 8.26907 9.82416 8.26809C9.82248 8.26753 9.82109 8.26697 9.81955 8.26642C9.81676 8.26544 9.81397 8.26446 9.81104 8.26376C9.8095 8.26321 9.80783 8.26293 9.80615 8.26237C9.80336 8.26181 9.80071 8.26111 9.79805 8.26055C9.7961 8.26027 9.79401 8.25999 9.79205 8.25986C9.78954 8.2593 9.78703 8.25916 9.78451 8.25888C9.78214 8.2586 9.77977 8.2586 9.77726 8.25846C9.77544 8.25846 9.77404 8.25818 9.77223 8.25818H9.2616C9.18328 8.25818 9.11963 8.32169 9.11963 8.39972V11.5726C9.11963 11.6507 9.18328 11.7141 9.2616 11.7141H9.77223C9.85068 11.7141 9.9142 11.6507 9.9142 11.5726V9.68812L11.37 11.6542C11.3801 11.6685 11.3925 11.6801 11.406 11.6893C11.4065 11.6895 11.407 11.69 11.4074 11.6904C11.4104 11.6922 11.4133 11.694 11.4162 11.6957C11.4176 11.6965 11.4189 11.6971 11.4203 11.6978C11.4224 11.699 11.4247 11.7002 11.427 11.7011C11.4293 11.7021 11.4314 11.7031 11.434 11.7041C11.4353 11.7046 11.4367 11.7052 11.4381 11.7056C11.4415 11.7069 11.4446 11.7078 11.4478 11.7088C11.4485 11.7088 11.4492 11.7091 11.4499 11.7092C11.4615 11.7123 11.4736 11.7141 11.4862 11.7141H11.9969C12.0754 11.7141 12.1388 11.6507 12.1388 11.5726V8.39972C12.1388 8.32169 12.0754 8.25818 11.9969 8.25818Z" fill="#00B900"/>
<path d="M7.25695 10.9196H5.86913V8.39986C5.86913 8.32155 5.80561 8.25803 5.72744 8.25803H5.21653C5.13822 8.25803 5.07471 8.32155 5.07471 8.39986V11.5721V11.5724C5.07471 11.6105 5.08992 11.645 5.11435 11.6704C5.11491 11.6711 5.11547 11.6718 5.11631 11.6725C5.117 11.6732 5.1177 11.6738 5.1184 11.6745C5.14394 11.699 5.17828 11.7141 5.21639 11.7141H5.21653H7.25695C7.33526 11.7141 7.3985 11.6505 7.3985 11.5721V11.0614C7.3985 10.9831 7.33526 10.9196 7.25695 10.9196Z" fill="#00B900"/>
<path d="M14.8234 9.05257C14.9017 9.05257 14.9649 8.9892 14.9649 8.91075V8.39999C14.9649 8.32169 14.9017 8.25803 14.8234 8.25803H12.7829H12.7827C12.7444 8.25803 12.7099 8.27339 12.6844 8.2981C12.6838 8.29865 12.6831 8.29907 12.6827 8.29963C12.6819 8.30047 12.6812 8.30131 12.6805 8.30214C12.6562 8.32755 12.6411 8.36189 12.6411 8.39986V8.39999V11.5723V11.5724C12.6411 11.6105 12.6563 11.645 12.6808 11.6704C12.6813 11.6711 12.682 11.672 12.6827 11.6725C12.6833 11.6732 12.6841 11.6739 12.6848 11.6745C12.7102 11.6989 12.7447 11.7141 12.7827 11.7141H12.7829H14.8234C14.9017 11.7141 14.9649 11.6505 14.9649 11.5723V11.0614C14.9649 10.9832 14.9017 10.9196 14.8234 10.9196H13.4357V10.3833H14.8234C14.9017 10.3833 14.9649 10.3198 14.9649 10.2415V9.73069C14.9649 9.65239 14.9017 9.58873 14.8234 9.58873H13.4357V9.05257H14.8234Z" fill="#00B900"/>
</svg>
